<?xml version="1.0" encoding="UTF-8" standalone="no"?>
<svg
   version="1.1"
   x="0px"
   y="0px"
   viewBox="0 0 128 160"
   style="enable-background:new 0 0 128 128;"
   xml:space="preserve"
   id="svg10"
   sodipodi:docname="noun_Computer_1637911.svg"
   inkscape:version="1.1 (c68e22c387, 2021-05-23)"
   xmlns:inkscape="http://www.inkscape.org/namespaces/inkscape"
   xmlns:sodipodi="http://sodipodi.sourceforge.net/DTD/sodipodi-0.dtd"
   xmlns="http://www.w3.org/2000/svg"
   xmlns:svg="http://www.w3.org/2000/svg"><defs
     id="defs14" /><sodipodi:namedview
     id="namedview12"
     pagecolor="#ffffff"
     bordercolor="#666666"
     borderopacity="1.0"
     inkscape:pageshadow="2"
     inkscape:pageopacity="0.0"
     inkscape:pagecheckerboard="0"
     showgrid="false"
     inkscape:zoom="5.15"
     inkscape:cx="63.980583"
     inkscape:cy="64.563107"
     inkscape:window-width="1920"
     inkscape:window-height="1013"
     inkscape:window-x="-9"
     inkscape:window-y="-9"
     inkscape:window-maximized="1"
     inkscape:current-layer="svg10" /><g
     id="g4"
     style="fill:#ffffff"><path
       d="M120,11H8c-4.4004116,0-8,3.6000996-8,8v75c0,4.3999023,3.5995886,8,8,8h44v10.0692978l-27.2148113,2.9424057   c-1.0986996,0.1186981-1.892601,1.1049957-1.7735004,2.2030945C23.1220875,118.2401962,23.9892883,119,24.9970875,119   c0.0722008,0,0.1445007-0.0038986,0.217701-0.0117035L62.1063881,115H64.25h1.6435852l36.8916016,3.9882965   C102.8583832,118.9961014,102.930687,119,103.0028839,119c1.0078049,0,1.875-0.7598038,1.985405-1.785202   c0.1190948-1.0980988-0.6748047-2.0843964-1.7735062-2.2030945L76,112.0692978V102h44c4.400383,0,8-3.6000977,8-8V19   C128,14.6000996,124.400383,11,120,11z M72,94H56c-0.5527115,0-1-0.4477997-1-1s0.4472885-1,1-1h16c0.5526886,0,1,0.4477997,1,1   S72.5526886,94,72,94z M107,94c-0.5527115,0-1-0.4477997-1-1s0.4472885-1,1-1c0.5526886,0,1,0.4477997,1,1S107.5526886,94,107,94z    M113,94c-0.5527115,0-1-0.4477997-1-1s0.4472885-1,1-1c0.5526886,0,1,0.4477997,1,1S113.5526886,94,113,94z M124,86H4V19   c0-2.2056007,1.7938886-4,4-4h112c2.2060852,0,4,1.7943993,4,4V86z"
       id="path2"
       style="fill:#ffffff" /></g></svg>
