<svg xmlns="http://www.w3.org/2000/svg" xmlns:xlink="http://www.w3.org/1999/xlink" version="1.1" x="0px" y="0px" viewBox="0 0 48 60" enable-background="new 0 0 48 48" xml:space="preserve"><g><path fill="#000000" d="M24,47.7L3.5,35.9l0-23.7L24,0.3l20.5,11.8l0,23.7L24,47.7z M5.5,34.7L24,45.3l18.5-10.7l0-21.3L24,2.7   L5.5,13.4L5.5,34.7z"/><path fill="#000000" d="M24,40.7L9.5,32.4l0-16.7L24,7.3l14.5,8.3l0,16.7L24,40.7z M11.5,31.2L24,38.4l12.5-7.2l0-14.4L24,9.6   l-12.5,7.2L11.5,31.2z"/><path fill="#000000" d="M24,33.8l-8.5-4.9l0-9.8l8.5-4.9l8.5,4.9l0,9.8L24,33.8z M17.5,27.8l6.5,3.7l6.5-3.8l0-7.5L24,16.5   l-6.5,3.8L17.5,27.8z"/><polygon fill="#000000" points="23,46.5 23,24 23,1.5 25,1.5 25,24 25,46.5  "/><rect x="23" y="1.5" transform="matrix(0.501 0.8654 -0.8654 0.501 32.7449 -8.7952)" fill="#000000" width="2" height="45"/><rect x="1.5" y="23" transform="matrix(0.8668 0.4987 -0.4987 0.8668 15.1646 -8.771)" fill="#000000" width="45" height="2"/></g><text x="0" y="63" fill="#000000" font-size="5px" font-weight="bold" font-family="'Helvetica Neue', Helvetica, Arial-Unicode, Arial, Sans-serif">Created by Creative Stall</text><text x="0" y="68" fill="#000000" font-size="5px" font-weight="bold" font-family="'Helvetica Neue', Helvetica, Arial-Unicode, Arial, Sans-serif">from the Noun Project</text></svg>